<svg xmlns="http://www.w3.org/2000/svg" xmlns:xlink="http://www.w3.org/1999/xlink" fill="none" version="1.1" width="1698" height="606" viewBox="0 0 1698 606"><defs><linearGradient x1="0.19552315771579742" y1="0.11828472465276718" x2="0.7748060822486877" y2="0.9433670043945312" id="master_svg0_5_0713"><stop offset="0%" stop-color="#94D391" stop-opacity="1"/><stop offset="100%" stop-color="#41AE3C" stop-opacity="1"/></linearGradient></defs><g><g><path d="M525,151.5L262.5,0L192.777,40.24L192.777,259.368L61.8342,277.548L61.8342,115.813L0,151.5L0.00000762939,454.5L61.8342,490.187L61.8342,345.42L192.777,361.782L192.777,565.76L262.5,606L525,454.5L525,388.929L332.821,482.376L332.821,122.412L525,211.213L525,151.5Z" fill-rule="evenodd" fill="url(#master_svg0_5_0713)" fill-opacity="1"/></g><g><path d="M676.08,153.28L669.7,201.68L718.76,201.68L724.7,161.64L718.3199999999999,153.28L766.94,153.28L750,277.8L707.76,277.8L716.12,222.8L666.84,222.8L659.14,277.8L616.9,277.8L633.84,159.44L625.26,153.28L676.08,153.28ZM799.72,277.8Q796.64,277.8,794,276.7Q791.36,275.6,789.49,273.62Q787.62,271.64,786.96,268.89Q786.3,266.14,787.1800000000001,263.06L801.92,153.28L935.02,153.28L932.8199999999999,174.4L839.98,174.4L829.42,256.68L911.7,256.68L922.26,248.32L918.0799999999999,277.8L799.72,277.8ZM1010.7,153.28L995.96,256.68L1078.24,256.68L1076.26,277.8L966.48,277.8Q960.1,277.8,956.9100000000001,273.62Q953.72,269.44,953.72,263.06L966.48,161.64L960.1,153.28L1010.7,153.28ZM1223.22,153.28L1239.94,277.8L1202.1,277.8L1197.7,243.92L1144.9,243.92L1130.1599999999999,277.8L1094.3,277.8L1142.92,159.44L1136.54,153.28L1223.22,153.28ZM1174.6,174.4L1153.48,222.8L1195.72,222.8L1189.3400000000001,174.4L1174.6,174.4ZM1345.98,252.5L1350.1599999999999,227.2L1265.6799999999998,227.2L1276.24,153.28L1400.76,153.28L1396.58,189.14L1354.3400000000001,189.14L1356.54,174.4L1316.28,174.4L1309.9,206.07999999999998L1394.38,206.07999999999998L1386.02,263.06Q1386.02,266.14,1384.5900000000001,268.89Q1383.1599999999999,271.64,1380.74,273.62Q1378.3200000000002,275.6,1375.35,276.7Q1372.38,277.8,1369.08,277.8L1259.3,277.8L1263.48,243.92L1269.8600000000001,252.5L1345.98,252.5ZM1507.24,252.5L1511.42,227.2L1426.94,227.2L1437.5,153.28L1562.02,153.28L1557.8400000000001,189.14L1515.6,189.14L1517.8,174.4L1477.54,174.4L1471.1599999999999,206.07999999999998L1555.6399999999999,206.07999999999998L1547.28,263.06Q1547.28,266.14,1545.85,268.89Q1544.42,271.64,1542,273.62Q1539.58,275.6,1536.6100000000001,276.7Q1533.6399999999999,277.8,1530.3400000000001,277.8L1420.56,277.8L1424.74,243.92L1431.12,252.5L1507.24,252.5Z" fill="#41AE3C" fill-opacity="1"/></g><g><path d="M703.58,440.5L707.76,415.2L623.28,415.2L633.84,341.28L758.36,341.28L754.1800000000001,377.14L711.94,377.14L714.14,362.4L673.88,362.4L667.5,394.08L751.98,394.08L743.62,451.06Q743.62,454.14,742.19,456.89Q740.76,459.64,738.34,461.62Q735.92,463.6,732.95,464.7Q729.98,465.8,726.6800000000001,465.8L616.9,465.8L621.08,431.91999999999996L627.46,440.5L703.58,440.5ZM832.06,372.96L822.38,438.96000000000004L848.78,436.32L857.36,379.12L850.98,372.96L899.6,372.96L886.8399999999999,465.8L844.6,465.8L845.92,457.44L777.06,465.8L789.8199999999999,379.12L783.44,372.96L832.06,372.96ZM978.36,328.52L972.2,372.96L1039.74,372.96L1029.18,451.06Q1027.42,457.44,1023.02,461.62Q1018.62,465.8,1012.24,465.8L917.2,465.8L936.12,334.9L931.94,328.52L978.36,328.52ZM970,394.08L962.74,444.68L987.8199999999999,444.68L995.3,394.08L970,394.08ZM1117.84,364.6L1077.8,364.6L1081.98,341.28L1122.02,341.28L1117.84,364.6ZM1069.22,372.96L1117.84,372.96L1100.9,497.26Q1100.02,503.64,1095.29,507.82Q1090.56,512,1084.18,512L1039.74,512L1058.66,490.88L1075.6,379.34000000000003L1069.22,372.96ZM1251.6,427.74L1184.06,427.74L1181.8600000000001,444.68L1241.04,444.68L1251.6,436.32L1245.22,465.8L1152.38,465.8Q1146,465.8,1142.81,461.62Q1139.62,457.44,1139.62,451.06L1150.1799999999998,372.96L1259.96,372.96L1251.6,427.74ZM1190.22,394.08L1188.24,406.62L1213.54,406.62L1215.74,394.08L1190.22,394.08ZM1397.9,394.08L1330.3600000000001,394.08L1322,444.68L1380.96,444.68L1391.52,436.32L1387.3400000000001,465.8L1277.56,465.8L1292.3,372.96L1400.1,372.96L1397.9,394.08ZM1438.8200000000002,360.2L1434.6399999999999,353.82L1481.06,353.82L1478.2,372.96L1504.38,372.96L1499.98,394.08L1475.56,394.08L1468.3,444.68L1489.42,444.68L1485.24,465.8L1438.8200000000002,465.8Q1432.44,465.8,1428.48,461.62Q1424.52,457.44,1426.06,451.06L1434.6399999999999,394.08L1417.7,394.08L1419.9,372.96L1437.06,372.96L1438.8200000000002,360.2ZM1583.1399999999999,444.68L1585.12,429.94L1521.76,429.94L1530.3400000000001,372.96L1631.54,372.96L1627.3600000000001,400.24L1590.8400000000001,400.24L1591.5,394.08L1566.2,394.08L1564,408.82L1625.38,408.82L1620.98,451.06Q1619.44,457.44,1613.94,461.62Q1608.44,465.8,1602.06,465.8L1517.58,465.8L1521.76,436.32L1528.1399999999999,444.68L1583.1399999999999,444.68Z" fill="#000000" fill-opacity="1"/></g></g></svg>