<svg xmlns="http://www.w3.org/2000/svg" xmlns:xlink="http://www.w3.org/1999/xlink" fill="none" version="1.1" width="1717.5" height="645.0000610351562" viewBox="0 0 1717.5 645.0000610351562"><defs><filter id="master_svg0_5_1515" filterUnits="objectBoundingBox" color-interpolation-filters="sRGB" x="-26" y="-22" width="577" height="658"><feFlood flood-opacity="0" result="BackgroundImageFix"/><feColorMatrix in="SourceAlpha" type="matrix" values="0 0 0 0 0 0 0 0 0 0 0 0 0 0 0 0 0 0 127 0"/><feOffset dy="4" dx="0"/><feGaussianBlur stdDeviation="6.5"/><feColorMatrix type="matrix" values="0 0 0 0 0.04313725605607033 0 0 0 0 0.27450981736183167 0 0 0 0 0.03529411926865578 0 0 0 0.4588235318660736 0"/><feBlend mode="normal" in2="BackgroundImageFix" result="effect1_dropShadow"/><feBlend mode="normal" in="SourceGraphic" in2="effect1_dropShadow" result="shape"/></filter><linearGradient x1="0.19552315771579742" y1="0.11828472465276718" x2="0.7748060822486877" y2="0.9433670043945312" id="master_svg1_5_0713"><stop offset="0%" stop-color="#94D391" stop-opacity="1"/><stop offset="100%" stop-color="#41AE3C" stop-opacity="1"/></linearGradient><filter id="master_svg2_5_1520" filterUnits="objectBoundingBox" color-interpolation-filters="sRGB" x="-26" y="-22" width="1027" height="214"><feFlood flood-opacity="0" result="BackgroundImageFix"/><feColorMatrix in="SourceAlpha" type="matrix" values="0 0 0 0 0 0 0 0 0 0 0 0 0 0 0 0 0 0 127 0"/><feOffset dy="4" dx="0"/><feGaussianBlur stdDeviation="6.5"/><feColorMatrix type="matrix" values="0 0 0 0 0.04313725605607033 0 0 0 0 0.27450981736183167 0 0 0 0 0.03529411926865578 0 0 0 0.4588235318660736 0"/><feBlend mode="normal" in2="BackgroundImageFix" result="effect1_dropShadow"/><feBlend mode="normal" in="SourceGraphic" in2="effect1_dropShadow" result="shape"/></filter><filter id="master_svg3_5_1524" filterUnits="objectBoundingBox" color-interpolation-filters="sRGB" x="-26" y="-22" width="1143" height="214"><feFlood flood-opacity="0" result="BackgroundImageFix"/><feColorMatrix in="SourceAlpha" type="matrix" values="0 0 0 0 0 0 0 0 0 0 0 0 0 0 0 0 0 0 127 0"/><feOffset dy="4" dx="0"/><feGaussianBlur stdDeviation="6.5"/><feColorMatrix type="matrix" values="0 0 0 0 0 0 0 0 0 0 0 0 0 0 0 0 0 0 0.30000001192092896 0"/><feBlend mode="normal" in2="BackgroundImageFix" result="effect1_dropShadow"/><feBlend mode="normal" in="SourceGraphic" in2="effect1_dropShadow" result="shape"/></filter></defs><g><g filter="url(#master_svg0_5_1515)"><path d="M544.5,167L282,15.5L212.277,55.74L212.277,274.868L81.33420000000001,293.048L81.33420000000001,131.313L19.5,167L19.50000762939,470L81.33420000000001,505.687L81.33420000000001,360.92L212.277,377.282L212.277,581.26L282,621.5L544.5,470L544.5,404.429L352.321,497.876L352.321,137.912L544.5,226.713L544.5,167Z" fill-rule="evenodd" fill="url(#master_svg1_5_0713)" fill-opacity="1"/></g><g filter="url(#master_svg2_5_1520)"><path d="M695.58,168.78L689.2,217.18L738.26,217.18L744.2,177.14L737.8199999999999,168.78L786.44,168.78L769.5,293.3L727.26,293.3L735.62,238.3L686.34,238.3L678.64,293.3L636.4,293.3L653.34,174.94L644.76,168.78L695.58,168.78ZM819.22,293.3Q816.14,293.3,813.5,292.2Q810.86,291.1,808.99,289.12Q807.12,287.14,806.46,284.39Q805.8,281.64,806.6800000000001,278.56L821.42,168.78L954.52,168.78L952.3199999999999,189.9L859.48,189.9L848.92,272.18L931.2,272.18L941.76,263.82L937.5799999999999,293.3L819.22,293.3ZM1030.2,168.78L1015.46,272.18L1097.74,272.18L1095.76,293.3L985.98,293.3Q979.6,293.3,976.4100000000001,289.12Q973.22,284.94,973.22,278.56L985.98,177.14L979.6,168.78L1030.2,168.78ZM1242.72,168.78L1259.44,293.3L1221.6,293.3L1217.2,259.41999999999996L1164.4,259.41999999999996L1149.6599999999999,293.3L1113.8,293.3L1162.42,174.94L1156.04,168.78L1242.72,168.78ZM1194.1,189.9L1172.98,238.3L1215.22,238.3L1208.8400000000001,189.9L1194.1,189.9ZM1365.48,268L1369.6599999999999,242.7L1285.1799999999998,242.7L1295.74,168.78L1420.26,168.78L1416.08,204.64L1373.8400000000001,204.64L1376.04,189.9L1335.78,189.9L1329.4,221.57999999999998L1413.88,221.57999999999998L1405.52,278.56Q1405.52,281.64,1404.0900000000001,284.39Q1402.6599999999999,287.14,1400.24,289.12Q1397.8200000000002,291.1,1394.85,292.2Q1391.88,293.3,1388.58,293.3L1278.8,293.3L1282.98,259.41999999999996L1289.3600000000001,268L1365.48,268ZM1526.74,268L1530.92,242.7L1446.44,242.7L1457,168.78L1581.52,168.78L1577.3400000000001,204.64L1535.1,204.64L1537.3,189.9L1497.04,189.9L1490.6599999999999,221.57999999999998L1575.1399999999999,221.57999999999998L1566.78,278.56Q1566.78,281.64,1565.35,284.39Q1563.92,287.14,1561.5,289.12Q1559.08,291.1,1556.1100000000001,292.2Q1553.1399999999999,293.3,1549.8400000000001,293.3L1440.06,293.3L1444.24,259.41999999999996L1450.62,268L1526.74,268Z" fill="#41AE3C" fill-opacity="1"/></g><g filter="url(#master_svg3_5_1524)"><path d="M723.08,456L727.26,430.7L642.78,430.7L653.34,356.78L777.86,356.78L773.6800000000001,392.64L731.44,392.64L733.64,377.9L693.38,377.9L687,409.58L771.48,409.58L763.12,466.56Q763.12,469.64,761.69,472.39Q760.26,475.14,757.84,477.12Q755.42,479.1,752.45,480.2Q749.48,481.3,746.1800000000001,481.3L636.4,481.3L640.58,447.41999999999996L646.96,456L723.08,456ZM851.56,388.46L841.88,454.46000000000004L868.28,451.82L876.86,394.62L870.48,388.46L919.1,388.46L906.3399999999999,481.3L864.1,481.3L865.42,472.94L796.56,481.3L809.3199999999999,394.62L802.94,388.46L851.56,388.46ZM997.86,344.02L991.7,388.46L1059.24,388.46L1048.68,466.56Q1046.92,472.94,1042.52,477.12Q1038.12,481.3,1031.74,481.3L936.7,481.3L955.62,350.4L951.44,344.02L997.86,344.02ZM989.5,409.58L982.24,460.18L1007.3199999999999,460.18L1014.8,409.58L989.5,409.58ZM1137.34,380.1L1097.3,380.1L1101.48,356.78L1141.52,356.78L1137.34,380.1ZM1088.72,388.46L1137.34,388.46L1120.4,512.76Q1119.52,519.14,1114.79,523.3199999999999Q1110.06,527.5,1103.68,527.5L1059.24,527.5L1078.16,506.38L1095.1,394.84000000000003L1088.72,388.46ZM1271.1,443.24L1203.56,443.24L1201.3600000000001,460.18L1260.54,460.18L1271.1,451.82L1264.72,481.3L1171.88,481.3Q1165.5,481.3,1162.31,477.12Q1159.12,472.94,1159.12,466.56L1169.6799999999998,388.46L1279.46,388.46L1271.1,443.24ZM1209.72,409.58L1207.74,422.12L1233.04,422.12L1235.24,409.58L1209.72,409.58ZM1417.4,409.58L1349.8600000000001,409.58L1341.5,460.18L1400.46,460.18L1411.02,451.82L1406.8400000000001,481.3L1297.06,481.3L1311.8,388.46L1419.6,388.46L1417.4,409.58ZM1458.3200000000002,375.7L1454.1399999999999,369.32L1500.56,369.32L1497.7,388.46L1523.88,388.46L1519.48,409.58L1495.06,409.58L1487.8,460.18L1508.92,460.18L1504.74,481.3L1458.3200000000002,481.3Q1451.94,481.3,1447.98,477.12Q1444.02,472.94,1445.56,466.56L1454.1399999999999,409.58L1437.2,409.58L1439.4,388.46L1456.56,388.46L1458.3200000000002,375.7ZM1602.6399999999999,460.18L1604.62,445.44L1541.26,445.44L1549.8400000000001,388.46L1651.04,388.46L1646.8600000000001,415.74L1610.3400000000001,415.74L1611,409.58L1585.7,409.58L1583.5,424.32L1644.88,424.32L1640.48,466.56Q1638.94,472.94,1633.44,477.12Q1627.94,481.3,1621.56,481.3L1537.08,481.3L1541.26,451.82L1547.6399999999999,460.18L1602.6399999999999,460.18Z" fill="#000000" fill-opacity="1"/></g></g></svg>