<?xml version="1.0" standalone="no"?><!DOCTYPE svg PUBLIC "-//W3C//DTD SVG 1.1//EN" "http://www.w3.org/Graphics/SVG/1.1/DTD/svg11.dtd"><svg t="1707187446531" class="icon" viewBox="0 0 1024 1024" version="1.1" xmlns="http://www.w3.org/2000/svg" p-id="8546" xmlns:xlink="http://www.w3.org/1999/xlink" width="200" height="200"><path d="M812.222171 629.76c-120.832-34.274743-226.962286-96.270629-324.900571-189.513143-21.664914-20.626286-52.896914-48.961829-85.796571-78.994286-49.576229-45.012114-105.662171-95.963429-138.415543-129.155657l-2.121143-2.121143c18.505143 30.778514 44.719543 71.255771 70.802286 111.133258l47.147885 54.125714c4.695771-0.9216 9.552457-1.375086 14.394515-1.375086a78.482286 78.482286 0 0 1 78.379885 78.379886c0 8.484571-1.360457 16.822857-4.096 24.722286l4.242286 4.827428a80.837486 80.837486 0 0 1 26.989714-4.681143 81.130057 81.130057 0 0 1 80.954515 80.954515c0 7.8848-1.214171 15.608686-3.335315 23.04a81.8176 81.8176 0 0 1 52.765257-19.104915c45.933714 0 83.236571 37.302857 83.236572 83.090286 0 1.653029 0 3.320686-0.160914 4.988343 17.744457-24.868571 46.6944-41.384229 79.901257-41.384229a98.157714 98.157714 0 0 1 98.084571 98.084572 97.865143 97.865143 0 0 1-49.883428 85.357714c50.936686-2.735543 102.780343-14.862629 154.331428-36.688457-35.328-77.019429-92.174629-122.353371-182.520686-145.700572z" p-id="8547"></path><path d="M725.325601 737.630007a67.759543 67.759543 0 1 0 133.769369-21.706643 67.759543 67.759543 0 1 0-133.769369 21.706643Z" p-id="8548"></path><path d="M654.555429 711.314286c16.822857-8.791771 27.589486-26.375314 27.589485-46.226286a52.926171 52.926171 0 0 0-52.911543-52.765257c-17.437257 0-32.753371 8.338286-42.2912 21.357714a51.112229 51.112229 0 0 0-10.005942 25.175772 688.5376 688.5376 0 0 0 74.122971 54.272c1.214171-0.438857 2.428343-1.053257 3.496229-1.813943zM548.132571 589.282743a46.372571 46.372571 0 0 0 1.360458-11.220114 50.731886 50.731886 0 0 0-50.644115-50.644115c-1.506743 0-3.028114 0-4.388571 0.146286a50.965943 50.965943 0 0 0-30.017829 13.355886 749.655771 749.655771 0 0 0 66.56 76.097828 47.498971 47.498971 0 0 0 17.115429-27.735771zM433.810286 498.161371c4.856686-7.5776 7.592229-16.530286 7.592228-25.921828 0-1.974857-0.146286-3.949714-0.453485-5.909943a47.645257 47.645257 0 0 0-35.328-40.477257l-0.146286-0.146286a53.087086 53.087086 0 0 0-12.141714-1.521371c-2.267429 0-4.534857 0.146286-6.816915 0.438857 11.6736 18.197943 22.440229 34.728229 30.9248 48.522971 5.310171 8.484571 10.766629 16.822857 16.384 25.014857zM149.109029 259.540114c3.028114-0.760686 6.217143-4.534857 8.791771-7.431314 1.667657-2.121143 3.4816-4.242286 5.456457-6.056229 13.034057-13.794743 32.914286-20.772571 52.765257-18.197942 3.627886 0.453486 5.295543 0.6144 6.9632 0.453485 0.3072 0 0.6144-0.146286 1.214172-0.438857-9.391543-15.330743-19.104914-27.004343-30.017829-35.796114a91.530971 91.530971 0 0 0-20.772571-12.580572 28.452571 28.452571 0 0 0-11.819886-2.428342c-6.217143 0-12.580571 1.828571-18.183314 5.456457-9.259886 5.924571-14.862629 15.316114-15.008915 25.322057-0.453486 16.384 2.8672 33.645714 7.2704 49.883428 1.813943 0.146286 3.4816 0.599771 5.002972 0.906972l1.067886 0.146286c2.267429 0.453486 6.056229 1.067886 7.2704 0.760685zM91.648 80.193829a15.1552 15.1552 0 0 0-16.822857 1.214171L34.947657 112.9472c-5.002971 3.949714-6.9632 10.752-4.842057 16.822857 2.121143 6.217143 7.8848 10.313143 14.248229 10.313143 23.522743 0 44.280686 12.946286 61.937371 38.473143 4.973714-8.484571 12.053943-15.945143 20.8896-21.577143a63.3856 63.3856 0 0 1 27.794286-9.742629C134.261029 104.740571 93.608229 81.3056 91.662629 80.193829z" p-id="8549"></path><path d="M753.400686 831.6928c-22.893714-30.178743-53.833143-55.647086-94.3104-78.087314-5.602743-3.335314-11.205486-6.670629-16.822857-10.152229-0.760686-0.453486-1.360457-0.760686-1.974858-1.214171-30.763886-19.397486-60.021029-40.477257-87.478857-64.131657-0.746057-0.599771-1.653029-1.199543-2.267428-1.813943a439.237486 439.237486 0 0 1-29.257143-26.682515 13.633829 13.633829 0 0 1-2.881829-2.267428c-0.292571-0.453486-0.599771-0.760686-1.053257-1.214172-0.146286 0-0.146286 0-0.146286-0.146285a777.859657 777.859657 0 0 1-83.382857-95.056457s0-0.146286-0.146285-0.3072c-0.775314-0.906971-1.375086-1.828571-1.989486-2.735543-0.146286-0.146286-0.146286-0.292571-0.292572-0.438857-3.949714-5.3248-7.738514-10.620343-11.527314-15.930515-0.146286-0.292571-0.292571-0.453486-0.599771-0.760685-0.146286-0.292571-0.3072-0.453486-0.453486-0.760686-0.146286-0.146286-0.146286-0.292571-0.146286-0.438857h-0.160914l-0.453486-0.9216-0.3072-0.292572c-4.242286-5.924571-8.338286-11.995429-12.434285-18.051657-4.534857-6.977829-9.098971-14.101943-13.648458-21.211428-3.335314-5.310171-6.9632-11.234743-10.912914-17.437258l-0.906971-1.521371-30.017829-46.240914c-7.124114-10.605714-14.248229-21.679543-21.679543-33.060572-31.831771-48.493714-64.585143-98.523429-88.064-136.879543-3.657143 1.960229-8.338286 3.7888-13.502171 4.388572-5.163886 0.760686-9.713371 0.146286-13.502172-0.292572-10.912914-1.375086-21.357714 2.121143-28.189257 9.245258-1.521371 1.506743-2.735543 3.028114-4.096 4.534857-5.002971 5.763657-11.819886 13.809371-22.893714 16.676571a26.624 26.624 0 0 1-9.098971 1.521372c-1.214171 0-2.267429 0-3.4816-0.292572 45.933714 145.378743 98.991543 308.662857 206.336 450.091886 120.510171 159.188114 271.067429 226.494171 447.824457 200.572343-7.2704-40.784457-21.372343-75.337143-43.505372-105.208686a18.7392 18.7392 0 0 0-2.574628-3.4816z" p-id="8550"></path></svg>